<mxfile host="app.diagrams.net" modified="2023-09-24T12:54:37.145Z" agent="Mozilla/5.0 (Windows NT 10.0; Win64; x64) AppleWebKit/537.36 (KHTML, like Gecko) Chrome/117.0.0.0 Safari/537.36" etag="dPl5ebou5NO51aNwPRhR" version="21.8.1" type="device">
  <diagram id="prtHgNgQTEPvFCAcTncT" name="Page-1">
    <mxGraphModel dx="1216" dy="592" grid="1" gridSize="10" guides="1" tooltips="1" connect="1" arrows="1" fold="1" page="1" pageScale="1" pageWidth="827" pageHeight="1169" math="0" shadow="0">
      <root>
        <mxCell id="0" />
        <mxCell id="1" parent="0" />
        <mxCell id="Wc4HbTlUG1O3it5zdiRb-62" value="" style="ellipse;whiteSpace=wrap;html=1;" vertex="1" parent="1">
          <mxGeometry x="480.06" y="640" width="70" height="40" as="geometry" />
        </mxCell>
        <mxCell id="Wc4HbTlUG1O3it5zdiRb-40" value="phone" style="ellipse;whiteSpace=wrap;html=1;" vertex="1" parent="1">
          <mxGeometry x="485.06" y="645" width="60" height="30" as="geometry" />
        </mxCell>
        <mxCell id="Wc4HbTlUG1O3it5zdiRb-2" value="reports&amp;nbsp;" style="rounded=0;whiteSpace=wrap;html=1;" vertex="1" parent="1">
          <mxGeometry x="20" y="200" width="120" height="60" as="geometry" />
        </mxCell>
        <mxCell id="Wc4HbTlUG1O3it5zdiRb-3" value="staff" style="rounded=0;whiteSpace=wrap;html=1;" vertex="1" parent="1">
          <mxGeometry x="115" y="460" width="70" height="30" as="geometry" />
        </mxCell>
        <mxCell id="Wc4HbTlUG1O3it5zdiRb-4" value="control" style="rounded=0;whiteSpace=wrap;html=1;" vertex="1" parent="1">
          <mxGeometry x="120" y="605" width="100" height="40" as="geometry" />
        </mxCell>
        <mxCell id="Wc4HbTlUG1O3it5zdiRb-5" value="readers" style="rounded=0;whiteSpace=wrap;html=1;" vertex="1" parent="1">
          <mxGeometry x="450.06" y="700" width="100" height="50" as="geometry" />
        </mxCell>
        <mxCell id="Wc4HbTlUG1O3it5zdiRb-7" value="books" style="rounded=0;whiteSpace=wrap;html=1;" vertex="1" parent="1">
          <mxGeometry x="480" y="280" width="70" height="30" as="geometry" />
        </mxCell>
        <mxCell id="Wc4HbTlUG1O3it5zdiRb-8" value="maintain book" style="rounded=0;whiteSpace=wrap;html=1;" vertex="1" parent="1">
          <mxGeometry x="260" y="290" width="60" height="50" as="geometry" />
        </mxCell>
        <mxCell id="Wc4HbTlUG1O3it5zdiRb-9" value="Book_publish" style="rounded=0;whiteSpace=wrap;html=1;" vertex="1" parent="1">
          <mxGeometry x="700" y="350" width="70" height="40" as="geometry" />
        </mxCell>
        <mxCell id="Wc4HbTlUG1O3it5zdiRb-10" value="publishers" style="rounded=0;whiteSpace=wrap;html=1;" vertex="1" parent="1">
          <mxGeometry x="707" y="570" width="120" height="60" as="geometry" />
        </mxCell>
        <mxCell id="Wc4HbTlUG1O3it5zdiRb-11" value="&lt;u&gt;staff ID&lt;/u&gt;" style="ellipse;whiteSpace=wrap;html=1;" vertex="1" parent="1">
          <mxGeometry x="195" y="550" width="60" height="30" as="geometry" />
        </mxCell>
        <mxCell id="Wc4HbTlUG1O3it5zdiRb-13" value="name" style="ellipse;whiteSpace=wrap;html=1;" vertex="1" parent="1">
          <mxGeometry x="230" y="490" width="60" height="30" as="geometry" />
        </mxCell>
        <mxCell id="Wc4HbTlUG1O3it5zdiRb-14" value="email" style="ellipse;whiteSpace=wrap;html=1;" vertex="1" parent="1">
          <mxGeometry x="220" y="440" width="60" height="30" as="geometry" />
        </mxCell>
        <mxCell id="Wc4HbTlUG1O3it5zdiRb-15" value="phone" style="ellipse;whiteSpace=wrap;html=1;" vertex="1" parent="1">
          <mxGeometry x="20" y="480" width="60" height="30" as="geometry" />
        </mxCell>
        <mxCell id="Wc4HbTlUG1O3it5zdiRb-16" value="address" style="ellipse;whiteSpace=wrap;html=1;" vertex="1" parent="1">
          <mxGeometry x="60" y="530" width="60" height="30" as="geometry" />
        </mxCell>
        <mxCell id="Wc4HbTlUG1O3it5zdiRb-17" value="day of birth" style="ellipse;whiteSpace=wrap;html=1;" vertex="1" parent="1">
          <mxGeometry x="20" y="420" width="70" height="30" as="geometry" />
        </mxCell>
        <mxCell id="Wc4HbTlUG1O3it5zdiRb-19" value="" style="endArrow=none;html=1;rounded=0;exitX=0.5;exitY=0;exitDx=0;exitDy=0;entryX=0.5;entryY=1;entryDx=0;entryDy=0;" edge="1" parent="1" source="Wc4HbTlUG1O3it5zdiRb-3" target="Wc4HbTlUG1O3it5zdiRb-74">
          <mxGeometry width="50" height="50" relative="1" as="geometry">
            <mxPoint x="150" y="440" as="sourcePoint" />
            <mxPoint x="120" y="340" as="targetPoint" />
          </mxGeometry>
        </mxCell>
        <mxCell id="Wc4HbTlUG1O3it5zdiRb-21" value="" style="endArrow=none;html=1;rounded=0;exitX=0.5;exitY=0;exitDx=0;exitDy=0;entryX=0.5;entryY=0;entryDx=0;entryDy=0;" edge="1" parent="1" target="Wc4HbTlUG1O3it5zdiRb-74">
          <mxGeometry width="50" height="50" relative="1" as="geometry">
            <mxPoint x="120" y="310" as="sourcePoint" />
            <mxPoint x="120" y="310" as="targetPoint" />
            <Array as="points">
              <mxPoint x="100" y="260" />
            </Array>
          </mxGeometry>
        </mxCell>
        <mxCell id="Wc4HbTlUG1O3it5zdiRb-23" value="1" style="text;html=1;align=center;verticalAlign=middle;resizable=0;points=[];autosize=1;strokeColor=none;fillColor=none;" vertex="1" parent="1">
          <mxGeometry x="145" y="388" width="30" height="30" as="geometry" />
        </mxCell>
        <mxCell id="Wc4HbTlUG1O3it5zdiRb-24" value="N" style="text;html=1;align=center;verticalAlign=middle;resizable=0;points=[];autosize=1;strokeColor=none;fillColor=none;" vertex="1" parent="1">
          <mxGeometry x="115" y="268" width="30" height="30" as="geometry" />
        </mxCell>
        <mxCell id="Wc4HbTlUG1O3it5zdiRb-25" value="" style="endArrow=none;html=1;rounded=0;exitX=0;exitY=0;exitDx=0;exitDy=0;entryX=1;entryY=0.5;entryDx=0;entryDy=0;" edge="1" parent="1" source="Wc4HbTlUG1O3it5zdiRb-3" target="Wc4HbTlUG1O3it5zdiRb-17">
          <mxGeometry width="50" height="50" relative="1" as="geometry">
            <mxPoint x="160" y="470" as="sourcePoint" />
            <mxPoint x="135" y="366" as="targetPoint" />
          </mxGeometry>
        </mxCell>
        <mxCell id="Wc4HbTlUG1O3it5zdiRb-26" value="" style="endArrow=none;html=1;rounded=0;exitX=0;exitY=0.5;exitDx=0;exitDy=0;entryX=1.011;entryY=0.144;entryDx=0;entryDy=0;entryPerimeter=0;" edge="1" parent="1" source="Wc4HbTlUG1O3it5zdiRb-3" target="Wc4HbTlUG1O3it5zdiRb-15">
          <mxGeometry width="50" height="50" relative="1" as="geometry">
            <mxPoint x="125" y="470" as="sourcePoint" />
            <mxPoint x="100" y="445" as="targetPoint" />
          </mxGeometry>
        </mxCell>
        <mxCell id="Wc4HbTlUG1O3it5zdiRb-27" value="" style="endArrow=none;html=1;rounded=0;exitX=0.25;exitY=1;exitDx=0;exitDy=0;entryX=0.5;entryY=0;entryDx=0;entryDy=0;" edge="1" parent="1" source="Wc4HbTlUG1O3it5zdiRb-3" target="Wc4HbTlUG1O3it5zdiRb-16">
          <mxGeometry width="50" height="50" relative="1" as="geometry">
            <mxPoint x="135" y="480" as="sourcePoint" />
            <mxPoint x="110" y="455" as="targetPoint" />
          </mxGeometry>
        </mxCell>
        <mxCell id="Wc4HbTlUG1O3it5zdiRb-28" value="" style="endArrow=none;html=1;rounded=0;exitX=0.75;exitY=1;exitDx=0;exitDy=0;entryX=0.256;entryY=-0.1;entryDx=0;entryDy=0;entryPerimeter=0;" edge="1" parent="1" source="Wc4HbTlUG1O3it5zdiRb-3" target="Wc4HbTlUG1O3it5zdiRb-11">
          <mxGeometry width="50" height="50" relative="1" as="geometry">
            <mxPoint x="145" y="490" as="sourcePoint" />
            <mxPoint x="120" y="465" as="targetPoint" />
          </mxGeometry>
        </mxCell>
        <mxCell id="Wc4HbTlUG1O3it5zdiRb-29" value="" style="endArrow=none;html=1;rounded=0;exitX=0.75;exitY=1;exitDx=0;exitDy=0;entryX=0;entryY=0;entryDx=0;entryDy=0;" edge="1" parent="1" source="Wc4HbTlUG1O3it5zdiRb-3" target="Wc4HbTlUG1O3it5zdiRb-13">
          <mxGeometry width="50" height="50" relative="1" as="geometry">
            <mxPoint x="155" y="500" as="sourcePoint" />
            <mxPoint x="130" y="475" as="targetPoint" />
          </mxGeometry>
        </mxCell>
        <mxCell id="Wc4HbTlUG1O3it5zdiRb-30" value="" style="endArrow=none;html=1;rounded=0;exitX=0.3;exitY=0.989;exitDx=0;exitDy=0;entryX=1;entryY=0.25;entryDx=0;entryDy=0;exitPerimeter=0;" edge="1" parent="1" source="Wc4HbTlUG1O3it5zdiRb-14" target="Wc4HbTlUG1O3it5zdiRb-3">
          <mxGeometry width="50" height="50" relative="1" as="geometry">
            <mxPoint x="165" y="510" as="sourcePoint" />
            <mxPoint x="140" y="485" as="targetPoint" />
          </mxGeometry>
        </mxCell>
        <mxCell id="Wc4HbTlUG1O3it5zdiRb-36" value="&lt;u&gt;UserID&lt;/u&gt;" style="ellipse;whiteSpace=wrap;html=1;" vertex="1" parent="1">
          <mxGeometry x="385.06" y="645" width="50" height="30" as="geometry" />
        </mxCell>
        <mxCell id="Wc4HbTlUG1O3it5zdiRb-38" value="name" style="ellipse;whiteSpace=wrap;html=1;" vertex="1" parent="1">
          <mxGeometry x="590" y="770" width="60" height="30" as="geometry" />
        </mxCell>
        <mxCell id="Wc4HbTlUG1O3it5zdiRb-39" value="email" style="ellipse;whiteSpace=wrap;html=1;" vertex="1" parent="1">
          <mxGeometry x="510.06" y="790" width="60" height="30" as="geometry" />
        </mxCell>
        <mxCell id="Wc4HbTlUG1O3it5zdiRb-41" value="address" style="ellipse;whiteSpace=wrap;html=1;" vertex="1" parent="1">
          <mxGeometry x="345.06" y="730" width="60" height="30" as="geometry" />
        </mxCell>
        <mxCell id="Wc4HbTlUG1O3it5zdiRb-42" value="day of birth" style="ellipse;whiteSpace=wrap;html=1;" vertex="1" parent="1">
          <mxGeometry x="410.06" y="780" width="70" height="30" as="geometry" />
        </mxCell>
        <mxCell id="Wc4HbTlUG1O3it5zdiRb-44" value="" style="endArrow=none;html=1;rounded=0;exitX=0.5;exitY=0;exitDx=0;exitDy=0;" edge="1" parent="1" source="Wc4HbTlUG1O3it5zdiRb-5">
          <mxGeometry width="50" height="50" relative="1" as="geometry">
            <mxPoint x="470.06" y="660" as="sourcePoint" />
            <mxPoint x="510.06" y="680" as="targetPoint" />
          </mxGeometry>
        </mxCell>
        <mxCell id="Wc4HbTlUG1O3it5zdiRb-45" value="" style="endArrow=none;html=1;rounded=0;exitX=1;exitY=0.5;exitDx=0;exitDy=0;" edge="1" parent="1" source="Wc4HbTlUG1O3it5zdiRb-36">
          <mxGeometry width="50" height="50" relative="1" as="geometry">
            <mxPoint x="520.06" y="710" as="sourcePoint" />
            <mxPoint x="450.06" y="710" as="targetPoint" />
            <Array as="points">
              <mxPoint x="450.06" y="710" />
            </Array>
          </mxGeometry>
        </mxCell>
        <mxCell id="Wc4HbTlUG1O3it5zdiRb-46" value="" style="endArrow=none;html=1;rounded=0;exitX=1;exitY=0.5;exitDx=0;exitDy=0;" edge="1" parent="1" source="Wc4HbTlUG1O3it5zdiRb-5">
          <mxGeometry width="50" height="50" relative="1" as="geometry">
            <mxPoint x="530.06" y="720" as="sourcePoint" />
            <mxPoint x="604.9438692342601" y="772.0433164865085" as="targetPoint" />
          </mxGeometry>
        </mxCell>
        <mxCell id="Wc4HbTlUG1O3it5zdiRb-47" value="" style="endArrow=none;html=1;rounded=0;exitX=0.75;exitY=1;exitDx=0;exitDy=0;entryX=0.5;entryY=0;entryDx=0;entryDy=0;" edge="1" parent="1" source="Wc4HbTlUG1O3it5zdiRb-5" target="Wc4HbTlUG1O3it5zdiRb-39">
          <mxGeometry width="50" height="50" relative="1" as="geometry">
            <mxPoint x="540.06" y="730" as="sourcePoint" />
            <mxPoint x="540.06" y="780" as="targetPoint" />
          </mxGeometry>
        </mxCell>
        <mxCell id="Wc4HbTlUG1O3it5zdiRb-50" value="" style="endArrow=none;html=1;rounded=0;exitX=0.25;exitY=1;exitDx=0;exitDy=0;entryX=0.695;entryY=-0.078;entryDx=0;entryDy=0;entryPerimeter=0;" edge="1" parent="1" source="Wc4HbTlUG1O3it5zdiRb-5" target="Wc4HbTlUG1O3it5zdiRb-42">
          <mxGeometry width="50" height="50" relative="1" as="geometry">
            <mxPoint x="550.06" y="740" as="sourcePoint" />
            <mxPoint x="550.06" y="720" as="targetPoint" />
          </mxGeometry>
        </mxCell>
        <mxCell id="Wc4HbTlUG1O3it5zdiRb-51" value="" style="endArrow=none;html=1;rounded=0;exitX=1;exitY=0.5;exitDx=0;exitDy=0;entryX=0;entryY=0.75;entryDx=0;entryDy=0;" edge="1" parent="1" source="Wc4HbTlUG1O3it5zdiRb-41" target="Wc4HbTlUG1O3it5zdiRb-5">
          <mxGeometry width="50" height="50" relative="1" as="geometry">
            <mxPoint x="560.06" y="750" as="sourcePoint" />
            <mxPoint x="560.06" y="730" as="targetPoint" />
          </mxGeometry>
        </mxCell>
        <mxCell id="Wc4HbTlUG1O3it5zdiRb-64" value="&lt;u style=&quot;&quot;&gt;UserID ISBN&lt;/u&gt;" style="ellipse;whiteSpace=wrap;html=1;" vertex="1" parent="1">
          <mxGeometry y="140" width="70" height="30" as="geometry" />
        </mxCell>
        <mxCell id="Wc4HbTlUG1O3it5zdiRb-65" value="Category" style="ellipse;whiteSpace=wrap;html=1;" vertex="1" parent="1">
          <mxGeometry x="465" y="335" width="70" height="30" as="geometry" />
        </mxCell>
        <mxCell id="Wc4HbTlUG1O3it5zdiRb-66" value="date return" style="ellipse;whiteSpace=wrap;html=1;" vertex="1" parent="1">
          <mxGeometry x="195" y="190" width="70" height="30" as="geometry" />
        </mxCell>
        <mxCell id="Wc4HbTlUG1O3it5zdiRb-68" value="" style="endArrow=none;html=1;rounded=0;entryX=0;entryY=1;entryDx=0;entryDy=0;" edge="1" parent="1" target="Wc4HbTlUG1O3it5zdiRb-66">
          <mxGeometry width="50" height="50" relative="1" as="geometry">
            <mxPoint x="140" y="240" as="sourcePoint" />
            <mxPoint x="130" y="320" as="targetPoint" />
            <Array as="points">
              <mxPoint x="140" y="240" />
            </Array>
          </mxGeometry>
        </mxCell>
        <mxCell id="Wc4HbTlUG1O3it5zdiRb-70" value="" style="endArrow=none;html=1;rounded=0;entryX=0;entryY=1;entryDx=0;entryDy=0;exitX=1;exitY=0;exitDx=0;exitDy=0;" edge="1" parent="1" source="Wc4HbTlUG1O3it5zdiRb-2">
          <mxGeometry width="50" height="50" relative="1" as="geometry">
            <mxPoint x="117.5" y="214" as="sourcePoint" />
            <mxPoint x="182.5" y="190" as="targetPoint" />
            <Array as="points" />
          </mxGeometry>
        </mxCell>
        <mxCell id="Wc4HbTlUG1O3it5zdiRb-71" value="" style="endArrow=none;html=1;rounded=0;entryX=0.6;entryY=1.144;entryDx=0;entryDy=0;entryPerimeter=0;" edge="1" parent="1" target="Wc4HbTlUG1O3it5zdiRb-64">
          <mxGeometry width="50" height="50" relative="1" as="geometry">
            <mxPoint x="60" y="200" as="sourcePoint" />
            <mxPoint x="225" y="236" as="targetPoint" />
            <Array as="points">
              <mxPoint x="60" y="200" />
            </Array>
          </mxGeometry>
        </mxCell>
        <mxCell id="Wc4HbTlUG1O3it5zdiRb-74" value="manages" style="rhombus;whiteSpace=wrap;html=1;" vertex="1" parent="1">
          <mxGeometry x="90" y="320" width="70" height="60" as="geometry" />
        </mxCell>
        <mxCell id="Wc4HbTlUG1O3it5zdiRb-75" value="" style="endArrow=none;html=1;rounded=0;exitX=0.75;exitY=0;exitDx=0;exitDy=0;entryX=0.25;entryY=1;entryDx=0;entryDy=0;" edge="1" parent="1" source="Wc4HbTlUG1O3it5zdiRb-3" target="Wc4HbTlUG1O3it5zdiRb-8">
          <mxGeometry width="50" height="50" relative="1" as="geometry">
            <mxPoint x="380" y="430" as="sourcePoint" />
            <mxPoint x="430" y="380" as="targetPoint" />
          </mxGeometry>
        </mxCell>
        <mxCell id="Wc4HbTlUG1O3it5zdiRb-76" value="1" style="text;html=1;align=center;verticalAlign=middle;resizable=0;points=[];autosize=1;strokeColor=none;fillColor=none;" vertex="1" parent="1">
          <mxGeometry x="155" y="428" width="30" height="30" as="geometry" />
        </mxCell>
        <mxCell id="Wc4HbTlUG1O3it5zdiRb-77" value="N" style="text;html=1;align=center;verticalAlign=middle;resizable=0;points=[];autosize=1;strokeColor=none;fillColor=none;" vertex="1" parent="1">
          <mxGeometry x="235" y="338" width="30" height="30" as="geometry" />
        </mxCell>
        <mxCell id="Wc4HbTlUG1O3it5zdiRb-78" value="&lt;u style=&quot;&quot;&gt;Staff ID ISBN&lt;/u&gt;" style="ellipse;whiteSpace=wrap;html=1;" vertex="1" parent="1">
          <mxGeometry x="260" y="240" width="70" height="30" as="geometry" />
        </mxCell>
        <mxCell id="Wc4HbTlUG1O3it5zdiRb-80" value="" style="endArrow=none;html=1;rounded=0;exitX=0.5;exitY=1;exitDx=0;exitDy=0;entryX=0.75;entryY=0;entryDx=0;entryDy=0;" edge="1" parent="1" source="Wc4HbTlUG1O3it5zdiRb-78" target="Wc4HbTlUG1O3it5zdiRb-8">
          <mxGeometry width="50" height="50" relative="1" as="geometry">
            <mxPoint x="178" y="470" as="sourcePoint" />
            <mxPoint x="285" y="350" as="targetPoint" />
          </mxGeometry>
        </mxCell>
        <mxCell id="Wc4HbTlUG1O3it5zdiRb-82" value="" style="endArrow=none;html=1;rounded=0;exitX=1;exitY=0.5;exitDx=0;exitDy=0;entryX=0;entryY=0.25;entryDx=0;entryDy=0;" edge="1" parent="1" source="Wc4HbTlUG1O3it5zdiRb-84" target="Wc4HbTlUG1O3it5zdiRb-7">
          <mxGeometry width="50" height="50" relative="1" as="geometry">
            <mxPoint x="305" y="280" as="sourcePoint" />
            <mxPoint x="315" y="300" as="targetPoint" />
          </mxGeometry>
        </mxCell>
        <mxCell id="Wc4HbTlUG1O3it5zdiRb-85" value="N" style="text;html=1;align=center;verticalAlign=middle;resizable=0;points=[];autosize=1;strokeColor=none;fillColor=none;" vertex="1" parent="1">
          <mxGeometry x="325" y="288" width="30" height="30" as="geometry" />
        </mxCell>
        <mxCell id="Wc4HbTlUG1O3it5zdiRb-86" value="&lt;u style=&quot;&quot;&gt;&amp;nbsp;ISBN&lt;/u&gt;" style="ellipse;whiteSpace=wrap;html=1;" vertex="1" parent="1">
          <mxGeometry x="475" y="220" width="70" height="30" as="geometry" />
        </mxCell>
        <mxCell id="Wc4HbTlUG1O3it5zdiRb-88" value="AuthNo" style="ellipse;whiteSpace=wrap;html=1;" vertex="1" parent="1">
          <mxGeometry x="560" y="320" width="70" height="30" as="geometry" />
        </mxCell>
        <mxCell id="Wc4HbTlUG1O3it5zdiRb-89" value="Edition&lt;span style=&quot;white-space: pre;&quot;&gt;&#x9;&lt;/span&gt;" style="ellipse;whiteSpace=wrap;html=1;" vertex="1" parent="1">
          <mxGeometry x="390" y="310" width="70" height="30" as="geometry" />
        </mxCell>
        <mxCell id="Wc4HbTlUG1O3it5zdiRb-90" value="Price" style="ellipse;whiteSpace=wrap;html=1;" vertex="1" parent="1">
          <mxGeometry x="560" y="250" width="70" height="30" as="geometry" />
        </mxCell>
        <mxCell id="Wc4HbTlUG1O3it5zdiRb-91" value="Title" style="ellipse;whiteSpace=wrap;html=1;" vertex="1" parent="1">
          <mxGeometry x="395" y="238" width="70" height="30" as="geometry" />
        </mxCell>
        <mxCell id="Wc4HbTlUG1O3it5zdiRb-94" value="" style="endArrow=none;html=1;rounded=0;entryX=0.5;entryY=0;entryDx=0;entryDy=0;exitX=0.5;exitY=1;exitDx=0;exitDy=0;" edge="1" parent="1" source="Wc4HbTlUG1O3it5zdiRb-86" target="Wc4HbTlUG1O3it5zdiRb-7">
          <mxGeometry width="50" height="50" relative="1" as="geometry">
            <mxPoint x="510" y="260" as="sourcePoint" />
            <mxPoint x="490" y="298" as="targetPoint" />
          </mxGeometry>
        </mxCell>
        <mxCell id="Wc4HbTlUG1O3it5zdiRb-95" value="" style="endArrow=none;html=1;rounded=0;entryX=1;entryY=0;entryDx=0;entryDy=0;exitX=0;exitY=0.5;exitDx=0;exitDy=0;" edge="1" parent="1" source="Wc4HbTlUG1O3it5zdiRb-90" target="Wc4HbTlUG1O3it5zdiRb-7">
          <mxGeometry width="50" height="50" relative="1" as="geometry">
            <mxPoint x="520" y="260" as="sourcePoint" />
            <mxPoint x="525" y="290" as="targetPoint" />
          </mxGeometry>
        </mxCell>
        <mxCell id="Wc4HbTlUG1O3it5zdiRb-96" value="" style="endArrow=none;html=1;rounded=0;entryX=1;entryY=0.75;entryDx=0;entryDy=0;exitX=0;exitY=0;exitDx=0;exitDy=0;" edge="1" parent="1" source="Wc4HbTlUG1O3it5zdiRb-88" target="Wc4HbTlUG1O3it5zdiRb-7">
          <mxGeometry width="50" height="50" relative="1" as="geometry">
            <mxPoint x="530" y="270" as="sourcePoint" />
            <mxPoint x="535" y="300" as="targetPoint" />
          </mxGeometry>
        </mxCell>
        <mxCell id="Wc4HbTlUG1O3it5zdiRb-97" value="" style="endArrow=none;html=1;rounded=0;entryX=0.5;entryY=1;entryDx=0;entryDy=0;" edge="1" parent="1" target="Wc4HbTlUG1O3it5zdiRb-7">
          <mxGeometry width="50" height="50" relative="1" as="geometry">
            <mxPoint x="510" y="330" as="sourcePoint" />
            <mxPoint x="545" y="310" as="targetPoint" />
          </mxGeometry>
        </mxCell>
        <mxCell id="Wc4HbTlUG1O3it5zdiRb-98" value="" style="endArrow=none;html=1;rounded=0;entryX=0;entryY=1;entryDx=0;entryDy=0;exitX=1;exitY=0.5;exitDx=0;exitDy=0;" edge="1" parent="1" source="Wc4HbTlUG1O3it5zdiRb-89" target="Wc4HbTlUG1O3it5zdiRb-7">
          <mxGeometry width="50" height="50" relative="1" as="geometry">
            <mxPoint x="550" y="290" as="sourcePoint" />
            <mxPoint x="555" y="320" as="targetPoint" />
          </mxGeometry>
        </mxCell>
        <mxCell id="Wc4HbTlUG1O3it5zdiRb-99" value="" style="endArrow=none;html=1;rounded=0;entryX=0.633;entryY=-0.122;entryDx=0;entryDy=0;exitX=0;exitY=0.25;exitDx=0;exitDy=0;entryPerimeter=0;" edge="1" parent="1" source="Wc4HbTlUG1O3it5zdiRb-7" target="Wc4HbTlUG1O3it5zdiRb-84">
          <mxGeometry width="50" height="50" relative="1" as="geometry">
            <mxPoint x="560" y="300" as="sourcePoint" />
            <mxPoint x="565" y="330" as="targetPoint" />
          </mxGeometry>
        </mxCell>
        <mxCell id="Wc4HbTlUG1O3it5zdiRb-102" value="" style="endArrow=none;html=1;rounded=0;exitX=1;exitY=0.5;exitDx=0;exitDy=0;entryX=1.011;entryY=0.744;entryDx=0;entryDy=0;entryPerimeter=0;" edge="1" parent="1" source="Wc4HbTlUG1O3it5zdiRb-8" target="Wc4HbTlUG1O3it5zdiRb-84">
          <mxGeometry width="50" height="50" relative="1" as="geometry">
            <mxPoint x="320" y="315" as="sourcePoint" />
            <mxPoint x="480" y="288" as="targetPoint" />
          </mxGeometry>
        </mxCell>
        <mxCell id="Wc4HbTlUG1O3it5zdiRb-84" value="1" style="text;html=1;align=center;verticalAlign=middle;resizable=0;points=[];autosize=1;strokeColor=none;fillColor=none;" vertex="1" parent="1">
          <mxGeometry x="445" y="268" width="30" height="30" as="geometry" />
        </mxCell>
        <mxCell id="Wc4HbTlUG1O3it5zdiRb-103" value="" style="endArrow=none;html=1;rounded=0;entryX=1;entryY=0.5;entryDx=0;entryDy=0;exitX=0.75;exitY=0;exitDx=0;exitDy=0;" edge="1" parent="1" source="Wc4HbTlUG1O3it5zdiRb-9" target="Wc4HbTlUG1O3it5zdiRb-7">
          <mxGeometry width="50" height="50" relative="1" as="geometry">
            <mxPoint x="580" y="334" as="sourcePoint" />
            <mxPoint x="560" y="313" as="targetPoint" />
          </mxGeometry>
        </mxCell>
        <mxCell id="Wc4HbTlUG1O3it5zdiRb-105" value="N" style="text;html=1;align=center;verticalAlign=middle;resizable=0;points=[];autosize=1;strokeColor=none;fillColor=none;" vertex="1" parent="1">
          <mxGeometry x="560" y="280" width="30" height="30" as="geometry" />
        </mxCell>
        <mxCell id="Wc4HbTlUG1O3it5zdiRb-106" value="N" style="text;html=1;align=center;verticalAlign=middle;resizable=0;points=[];autosize=1;strokeColor=none;fillColor=none;" vertex="1" parent="1">
          <mxGeometry x="720" y="318" width="30" height="30" as="geometry" />
        </mxCell>
        <mxCell id="Wc4HbTlUG1O3it5zdiRb-107" value="&lt;u&gt;Publisher ID ISBN&lt;/u&gt;" style="ellipse;whiteSpace=wrap;html=1;" vertex="1" parent="1">
          <mxGeometry x="614" y="408" width="93" height="42" as="geometry" />
        </mxCell>
        <mxCell id="Wc4HbTlUG1O3it5zdiRb-108" value="date of publish" style="ellipse;whiteSpace=wrap;html=1;" vertex="1" parent="1">
          <mxGeometry x="740" y="410" width="70" height="30" as="geometry" />
        </mxCell>
        <mxCell id="Wc4HbTlUG1O3it5zdiRb-109" value="quantity" style="ellipse;whiteSpace=wrap;html=1;" vertex="1" parent="1">
          <mxGeometry x="757" y="318" width="70" height="30" as="geometry" />
        </mxCell>
        <mxCell id="Wc4HbTlUG1O3it5zdiRb-110" value="" style="endArrow=none;html=1;rounded=0;entryX=0;entryY=0.25;entryDx=0;entryDy=0;exitX=0.5;exitY=0;exitDx=0;exitDy=0;" edge="1" parent="1" source="Wc4HbTlUG1O3it5zdiRb-107" target="Wc4HbTlUG1O3it5zdiRb-9">
          <mxGeometry width="50" height="50" relative="1" as="geometry">
            <mxPoint x="580" y="334" as="sourcePoint" />
            <mxPoint x="560" y="313" as="targetPoint" />
          </mxGeometry>
        </mxCell>
        <mxCell id="Wc4HbTlUG1O3it5zdiRb-111" value="" style="endArrow=none;html=1;rounded=0;exitX=0;exitY=0;exitDx=0;exitDy=0;" edge="1" parent="1" source="Wc4HbTlUG1O3it5zdiRb-108">
          <mxGeometry width="50" height="50" relative="1" as="geometry">
            <mxPoint x="590" y="344" as="sourcePoint" />
            <mxPoint x="740" y="390" as="targetPoint" />
          </mxGeometry>
        </mxCell>
        <mxCell id="Wc4HbTlUG1O3it5zdiRb-112" value="" style="endArrow=none;html=1;rounded=0;entryX=1;entryY=0.75;entryDx=0;entryDy=0;exitX=0.5;exitY=1;exitDx=0;exitDy=0;" edge="1" parent="1" source="Wc4HbTlUG1O3it5zdiRb-109" target="Wc4HbTlUG1O3it5zdiRb-9">
          <mxGeometry width="50" height="50" relative="1" as="geometry">
            <mxPoint x="760" y="424" as="sourcePoint" />
            <mxPoint x="780" y="400" as="targetPoint" />
          </mxGeometry>
        </mxCell>
        <mxCell id="Wc4HbTlUG1O3it5zdiRb-113" value="&lt;u&gt;User ID&lt;/u&gt;" style="ellipse;whiteSpace=wrap;html=1;" vertex="1" parent="1">
          <mxGeometry x="170" y="690" width="50" height="30" as="geometry" />
        </mxCell>
        <mxCell id="Wc4HbTlUG1O3it5zdiRb-114" value="&lt;u&gt;Staff ID&lt;/u&gt;" style="ellipse;whiteSpace=wrap;html=1;" vertex="1" parent="1">
          <mxGeometry x="90" y="700" width="50" height="30" as="geometry" />
        </mxCell>
        <mxCell id="Wc4HbTlUG1O3it5zdiRb-116" value="" style="endArrow=none;html=1;rounded=0;exitX=0.353;exitY=0.975;exitDx=0;exitDy=0;entryX=0.5;entryY=0;entryDx=0;entryDy=0;exitPerimeter=0;" edge="1" parent="1" source="Wc4HbTlUG1O3it5zdiRb-4">
          <mxGeometry width="50" height="50" relative="1" as="geometry">
            <mxPoint x="-15" y="775" as="sourcePoint" />
            <mxPoint x="110" y="700" as="targetPoint" />
          </mxGeometry>
        </mxCell>
        <mxCell id="Wc4HbTlUG1O3it5zdiRb-117" value="" style="endArrow=none;html=1;rounded=0;entryX=0;entryY=0;entryDx=0;entryDy=0;" edge="1" parent="1" source="Wc4HbTlUG1O3it5zdiRb-4" target="Wc4HbTlUG1O3it5zdiRb-113">
          <mxGeometry width="50" height="50" relative="1" as="geometry">
            <mxPoint x="120" y="679" as="sourcePoint" />
            <mxPoint x="120" y="710" as="targetPoint" />
          </mxGeometry>
        </mxCell>
        <mxCell id="Wc4HbTlUG1O3it5zdiRb-118" value="" style="endArrow=none;html=1;rounded=0;entryX=0.5;entryY=1;entryDx=0;entryDy=0;exitX=0.397;exitY=-0.119;exitDx=0;exitDy=0;exitPerimeter=0;" edge="1" parent="1" source="Wc4HbTlUG1O3it5zdiRb-4" target="Wc4HbTlUG1O3it5zdiRb-3">
          <mxGeometry width="50" height="50" relative="1" as="geometry">
            <mxPoint x="310" y="590" as="sourcePoint" />
            <mxPoint x="150" y="502" as="targetPoint" />
          </mxGeometry>
        </mxCell>
        <mxCell id="Wc4HbTlUG1O3it5zdiRb-119" value="N" style="edgeLabel;html=1;align=center;verticalAlign=middle;resizable=0;points=[];" vertex="1" connectable="0" parent="Wc4HbTlUG1O3it5zdiRb-118">
          <mxGeometry x="0.4742" y="-5" relative="1" as="geometry">
            <mxPoint as="offset" />
          </mxGeometry>
        </mxCell>
        <mxCell id="Wc4HbTlUG1O3it5zdiRb-121" value="1" style="text;html=1;align=center;verticalAlign=middle;resizable=0;points=[];autosize=1;strokeColor=none;fillColor=none;" vertex="1" parent="1">
          <mxGeometry x="295" y="568" width="30" height="30" as="geometry" />
        </mxCell>
        <mxCell id="Wc4HbTlUG1O3it5zdiRb-122" value="" style="endArrow=none;html=1;rounded=0;entryX=0;entryY=0.5;entryDx=0;entryDy=0;" edge="1" parent="1" source="Wc4HbTlUG1O3it5zdiRb-124" target="Wc4HbTlUG1O3it5zdiRb-5">
          <mxGeometry width="50" height="50" relative="1" as="geometry">
            <mxPoint x="330" y="610" as="sourcePoint" />
            <mxPoint x="169" y="504" as="targetPoint" />
          </mxGeometry>
        </mxCell>
        <mxCell id="Wc4HbTlUG1O3it5zdiRb-123" value="1" style="edgeLabel;html=1;align=center;verticalAlign=middle;resizable=0;points=[];" vertex="1" connectable="0" parent="Wc4HbTlUG1O3it5zdiRb-122">
          <mxGeometry x="0.4742" y="-5" relative="1" as="geometry">
            <mxPoint as="offset" />
          </mxGeometry>
        </mxCell>
        <mxCell id="Wc4HbTlUG1O3it5zdiRb-125" value="return date" style="rounded=0;whiteSpace=wrap;html=1;" vertex="1" parent="1">
          <mxGeometry x="425" y="525" width="100" height="40" as="geometry" />
        </mxCell>
        <mxCell id="Wc4HbTlUG1O3it5zdiRb-124" value="N" style="text;html=1;align=center;verticalAlign=middle;resizable=0;points=[];autosize=1;strokeColor=none;fillColor=none;" vertex="1" parent="1">
          <mxGeometry x="215" y="610" width="30" height="30" as="geometry" />
        </mxCell>
        <mxCell id="Wc4HbTlUG1O3it5zdiRb-131" value="" style="endArrow=none;html=1;rounded=0;exitX=0.25;exitY=1;exitDx=0;exitDy=0;" edge="1" parent="1" source="Wc4HbTlUG1O3it5zdiRb-125">
          <mxGeometry width="50" height="50" relative="1" as="geometry">
            <mxPoint x="455" y="680" as="sourcePoint" />
            <mxPoint x="470" y="700" as="targetPoint" />
            <Array as="points" />
          </mxGeometry>
        </mxCell>
        <mxCell id="Wc4HbTlUG1O3it5zdiRb-132" value="1" style="edgeLabel;html=1;align=center;verticalAlign=middle;resizable=0;points=[];" vertex="1" connectable="0" parent="Wc4HbTlUG1O3it5zdiRb-131">
          <mxGeometry x="0.8149" y="1" relative="1" as="geometry">
            <mxPoint as="offset" />
          </mxGeometry>
        </mxCell>
        <mxCell id="Wc4HbTlUG1O3it5zdiRb-133" value="N" style="edgeLabel;html=1;align=center;verticalAlign=middle;resizable=0;points=[];" vertex="1" connectable="0" parent="Wc4HbTlUG1O3it5zdiRb-131">
          <mxGeometry x="-0.6691" relative="1" as="geometry">
            <mxPoint as="offset" />
          </mxGeometry>
        </mxCell>
        <mxCell id="Wc4HbTlUG1O3it5zdiRb-134" value="&lt;u&gt;UserID&lt;br&gt;ISBN&lt;br&gt;&lt;/u&gt;" style="ellipse;whiteSpace=wrap;html=1;" vertex="1" parent="1">
          <mxGeometry x="350" y="500" width="60.06" height="40" as="geometry" />
        </mxCell>
        <mxCell id="Wc4HbTlUG1O3it5zdiRb-135" value="date" style="ellipse;whiteSpace=wrap;html=1;" vertex="1" parent="1">
          <mxGeometry x="535" y="530" width="70" height="30" as="geometry" />
        </mxCell>
        <mxCell id="Wc4HbTlUG1O3it5zdiRb-136" value="" style="endArrow=none;html=1;rounded=0;exitX=0.5;exitY=1;exitDx=0;exitDy=0;entryX=0;entryY=0.75;entryDx=0;entryDy=0;" edge="1" parent="1" source="Wc4HbTlUG1O3it5zdiRb-134" target="Wc4HbTlUG1O3it5zdiRb-125">
          <mxGeometry width="50" height="50" relative="1" as="geometry">
            <mxPoint x="445" y="670" as="sourcePoint" />
            <mxPoint x="460.06" y="720" as="targetPoint" />
            <Array as="points" />
          </mxGeometry>
        </mxCell>
        <mxCell id="Wc4HbTlUG1O3it5zdiRb-137" value="" style="endArrow=none;html=1;rounded=0;entryX=0;entryY=1;entryDx=0;entryDy=0;exitX=1;exitY=0.75;exitDx=0;exitDy=0;" edge="1" parent="1" source="Wc4HbTlUG1O3it5zdiRb-125" target="Wc4HbTlUG1O3it5zdiRb-135">
          <mxGeometry width="50" height="50" relative="1" as="geometry">
            <mxPoint x="530" y="556" as="sourcePoint" />
            <mxPoint x="435" y="565" as="targetPoint" />
            <Array as="points" />
          </mxGeometry>
        </mxCell>
        <mxCell id="Wc4HbTlUG1O3it5zdiRb-138" value="" style="endArrow=none;html=1;rounded=0;entryX=0.25;entryY=1;entryDx=0;entryDy=0;exitX=0.369;exitY=-0.072;exitDx=0;exitDy=0;exitPerimeter=0;" edge="1" parent="1" source="Wc4HbTlUG1O3it5zdiRb-10" target="Wc4HbTlUG1O3it5zdiRb-9">
          <mxGeometry width="50" height="50" relative="1" as="geometry">
            <mxPoint x="750" y="560" as="sourcePoint" />
            <mxPoint x="750" y="400" as="targetPoint" />
          </mxGeometry>
        </mxCell>
        <mxCell id="Wc4HbTlUG1O3it5zdiRb-139" value="1" style="edgeLabel;html=1;align=center;verticalAlign=middle;resizable=0;points=[];" vertex="1" connectable="0" parent="Wc4HbTlUG1O3it5zdiRb-138">
          <mxGeometry x="-0.8012" y="1" relative="1" as="geometry">
            <mxPoint as="offset" />
          </mxGeometry>
        </mxCell>
        <mxCell id="Wc4HbTlUG1O3it5zdiRb-140" value="N" style="edgeLabel;html=1;align=center;verticalAlign=middle;resizable=0;points=[];" vertex="1" connectable="0" parent="Wc4HbTlUG1O3it5zdiRb-138">
          <mxGeometry x="0.7357" y="1" relative="1" as="geometry">
            <mxPoint as="offset" />
          </mxGeometry>
        </mxCell>
        <mxCell id="Wc4HbTlUG1O3it5zdiRb-141" value="&lt;u&gt;Publisher ID&lt;/u&gt;" style="ellipse;whiteSpace=wrap;html=1;" vertex="1" parent="1">
          <mxGeometry x="700" y="660" width="70" height="30" as="geometry" />
        </mxCell>
        <mxCell id="Wc4HbTlUG1O3it5zdiRb-142" value="" style="endArrow=none;html=1;rounded=0;exitX=0.25;exitY=1;exitDx=0;exitDy=0;" edge="1" parent="1" source="Wc4HbTlUG1O3it5zdiRb-10" target="Wc4HbTlUG1O3it5zdiRb-141">
          <mxGeometry width="50" height="50" relative="1" as="geometry">
            <mxPoint x="560" y="735" as="sourcePoint" />
            <mxPoint x="614.9438692342601" y="782.0433164865085" as="targetPoint" />
          </mxGeometry>
        </mxCell>
        <mxCell id="Wc4HbTlUG1O3it5zdiRb-143" value="date of publish" style="ellipse;whiteSpace=wrap;html=1;" vertex="1" parent="1">
          <mxGeometry x="757" y="510" width="70" height="30" as="geometry" />
        </mxCell>
        <mxCell id="Wc4HbTlUG1O3it5zdiRb-144" value="name" style="ellipse;whiteSpace=wrap;html=1;" vertex="1" parent="1">
          <mxGeometry x="630" y="585" width="60" height="30" as="geometry" />
        </mxCell>
        <mxCell id="Wc4HbTlUG1O3it5zdiRb-145" value="" style="endArrow=none;html=1;rounded=0;exitX=1;exitY=1;exitDx=0;exitDy=0;entryX=0;entryY=0.75;entryDx=0;entryDy=0;" edge="1" parent="1" source="Wc4HbTlUG1O3it5zdiRb-144" target="Wc4HbTlUG1O3it5zdiRb-10">
          <mxGeometry width="50" height="50" relative="1" as="geometry">
            <mxPoint x="747" y="640" as="sourcePoint" />
            <mxPoint x="746" y="670" as="targetPoint" />
          </mxGeometry>
        </mxCell>
        <mxCell id="Wc4HbTlUG1O3it5zdiRb-146" value="" style="endArrow=none;html=1;rounded=0;exitX=0.647;exitY=0.05;exitDx=0;exitDy=0;exitPerimeter=0;" edge="1" parent="1" source="Wc4HbTlUG1O3it5zdiRb-10">
          <mxGeometry width="50" height="50" relative="1" as="geometry">
            <mxPoint x="757" y="650" as="sourcePoint" />
            <mxPoint x="792" y="540" as="targetPoint" />
          </mxGeometry>
        </mxCell>
      </root>
    </mxGraphModel>
  </diagram>
</mxfile>
